<svg width="45" height="45" viewBox="0 0 45 45" fill="none" xmlns="http://www.w3.org/2000/svg">
<circle cx="22.5" cy="22.5" r="22.5" fill="#3056D3"/>
<g clip-path="url(#clip0_121_53335)">
<path d="M28.1109 32.1562C25.4203 32.1562 21.5484 30.3125 18.0047 27.0937C13.1812 22.7187 11.1141 17.8437 13.2141 15.7187C13.3125 15.625 13.4109 15.5625 13.5422 15.5L16.2984 14.0312C16.9219 13.7187 17.7094 13.875 18.1031 14.4062L20.1047 17.125C20.3016 17.4062 20.4 17.75 20.3344 18.0625C20.2687 18.4062 20.0719 18.6875 19.7766 18.875L18.5625 19.625C18.4969 19.6562 18.4969 19.6875 18.4969 19.7187C18.4969 19.75 18.4969 19.7812 18.5297 19.8125C19.4156 21.0625 21.9422 24.25 25.9453 26.5312C26.0437 26.5937 26.2078 26.5625 26.2734 26.5L27.1266 25.4062C27.5531 24.8437 28.3734 24.7187 28.9969 25.0937L31.9828 26.9062C32.6062 27.2812 32.8031 28.0312 32.4094 28.625L30.7687 31.125C30.7031 31.25 30.6047 31.3437 30.5062 31.4062C29.8828 31.9375 29.0625 32.1562 28.1109 32.1562ZM16.9875 14.9375C16.9547 14.9375 16.9219 14.9375 16.8562 14.9687L14.1 16.4375C14.0672 16.4687 14.0672 16.4687 14.0344 16.4687C12.6563 17.875 14.2312 22.1562 18.825 26.3125C23.4187 30.4687 28.1766 31.9062 29.7516 30.625C29.7516 30.625 29.7516 30.625 29.7844 30.5937L31.425 28.0937C31.4578 28.0312 31.4578 27.9375 31.3594 27.875L28.3734 26.0625C28.275 26 28.1109 26.0312 28.0453 26.0937L27.1922 27.1875C26.7656 27.7187 25.9781 27.875 25.3547 27.5312C21.1219 25.125 18.4969 21.7812 17.5781 20.4375C17.3812 20.1562 17.3156 19.8437 17.3812 19.5C17.4469 19.1875 17.6437 18.875 17.9391 18.7187L19.1531 17.9375C19.2187 17.9062 19.2187 17.875 19.2187 17.8437C19.2187 17.8125 19.2187 17.7812 19.1859 17.7187L17.1844 15C17.1516 14.9687 17.0531 14.9375 16.9875 14.9375Z" fill="white"/>
</g>
<defs>
<clipPath id="clip0_121_53335">
<rect width="21" height="20" fill="white" transform="translate(12 13)"/>
</clipPath>
</defs>
</svg>
